<svg width="62" height="62" viewBox="0 0 62 62" fill="none" xmlns="http://www.w3.org/2000/svg">
<path d="M30.125 0.581155C30.5056 -0.106602 31.4944 -0.106602 31.875 0.581155L35.1094 6.4261C35.409 6.96751 36.1234 7.10963 36.6074 6.72408L41.8324 2.56182C42.4472 2.07206 43.3607 2.45044 43.4492 3.23149L44.2006 9.86927C44.2702 10.4841 44.8759 10.8888 45.4706 10.7178L51.8907 8.87193C52.6461 8.65473 53.3453 9.35389 53.1281 10.1093L51.2822 16.5294C51.1112 17.1241 51.5159 17.7298 52.1307 17.7994L58.7685 18.5508C59.5496 18.6393 59.9279 19.5528 59.4382 20.1676L55.2759 25.3926C54.8904 25.8766 55.0325 26.591 55.5739 26.8906L61.4188 30.125C62.1066 30.5056 62.1066 31.4944 61.4188 31.875L55.5739 35.1094C55.0325 35.409 54.8904 36.1234 55.2759 36.6074L59.4382 41.8324C59.9279 42.4472 59.5496 43.3607 58.7685 43.4492L52.1307 44.2006C51.5159 44.2702 51.1112 44.8759 51.2822 45.4706L53.1281 51.8907C53.3453 52.6461 52.6461 53.3453 51.8907 53.1281L45.4706 51.2822C44.8759 51.1112 44.2702 51.5159 44.2006 52.1307L43.4492 58.7685C43.3607 59.5496 42.4472 59.9279 41.8324 59.4382L36.6074 55.2759C36.1234 54.8904 35.409 55.0325 35.1094 55.5739L31.875 61.4188C31.4944 62.1066 30.5056 62.1066 30.125 61.4188L26.8906 55.5739C26.591 55.0325 25.8766 54.8904 25.3926 55.2759L20.1676 59.4382C19.5528 59.9279 18.6393 59.5496 18.5508 58.7685L17.7994 52.1307C17.7298 51.5159 17.1241 51.1112 16.5294 51.2822L10.1093 53.1281C9.35389 53.3453 8.65473 52.6461 8.87193 51.8907L10.7178 45.4706C10.8888 44.8759 10.4841 44.2702 9.86927 44.2006L3.23149 43.4492C2.45044 43.3607 2.07206 42.4472 2.56182 41.8324L6.72408 36.6074C7.10963 36.1234 6.96751 35.409 6.4261 35.1094L0.581155 31.875C-0.106602 31.4944 -0.106602 30.5056 0.581155 30.125L6.4261 26.8906C6.96751 26.591 7.10963 25.8766 6.72408 25.3926L2.56182 20.1676C2.07206 19.5528 2.45044 18.6393 3.23149 18.5508L9.86927 17.7994C10.4841 17.7298 10.8888 17.1241 10.7178 16.5294L8.87193 10.1093C8.65473 9.35389 9.35389 8.65473 10.1093 8.87193L16.5294 10.7178C17.1241 10.8888 17.7298 10.4841 17.7994 9.86927L18.5508 3.23149C18.6393 2.45044 19.5528 2.07206 20.1676 2.56182L25.3926 6.72408C25.8766 7.10963 26.591 6.96751 26.8906 6.4261L30.125 0.581155Z" fill="#2CDA9D"/>
<path d="M39 25L28 36L23 31" stroke="white" stroke-width="2" stroke-linecap="round" stroke-linejoin="round"/>
</svg>
